<svg xmlns="http://www.w3.org/2000/svg" width="1130.61" height="194.43" viewBox="0 0 1130.61 194.43"><title>logo</title><polygon points="0 194.31 35.16 194.31 35.16 96.39 49.08 84.99 49.08 47.55 70.2 47.55 70.2 68.07 111.12 33.99 71.76 1.35 0 1.35 0 194.31" fill="#7fccf8"/><polygon points="150.12 1.35 111.12 33.99 187.2 96.51 187.2 194.43 222.12 194.43 222.12 1.35 150.12 1.35" fill="#047bb5"/><polygon points="93.96 194.43 35.16 194.31 35.16 96.39 49.08 84.99 49.08 47.55 70.2 47.55 70.2 68.07 111.12 33.99 187.2 96.51 187.2 194.43 128.16 194.43 128.16 144.57 94.14 144.57 93.96 194.43" fill="#35a1e1"/><path d="M952.27,157.59a20.35,20.35,0,0,1,8.22-8.3,24.55,24.55,0,0,1,12.07-2.91q8.72,0,14.57,4.57a21.55,21.55,0,0,1,7.68,12.86H979.7q-1.91-5.31-7.39-5.31a7.44,7.44,0,0,0-6.22,3q-2.33,3-2.32,8.67t2.32,8.68a7.44,7.44,0,0,0,6.22,3q5.49,0,7.39-5.32h15.11a21.75,21.75,0,0,1-7.72,12.79A22.72,22.72,0,0,1,972.56,194a24.55,24.55,0,0,1-12.07-2.9,20.41,20.41,0,0,1-8.22-8.3,28.45,28.45,0,0,1,0-25.23Z" transform="translate(-5.84 -2.85)" fill="#7fcbf8"/><path d="M1012.53,191.12a21.21,21.21,0,0,1-8.55-8.3,26.91,26.91,0,0,1,0-25.19,21.37,21.37,0,0,1,8.63-8.34,27.39,27.39,0,0,1,24.57,0,21.37,21.37,0,0,1,8.63,8.34,26.45,26.45,0,0,1,0,25.15,21.7,21.7,0,0,1-8.71,8.34,26,26,0,0,1-12.33,2.9A25.49,25.49,0,0,1,1012.53,191.12Zm19.17-12.37q2.86-3,2.86-8.55c0-3.7-.92-6.55-2.78-8.55a9.44,9.44,0,0,0-13.73,0q-2.74,3-2.74,8.59t2.7,8.55a8.72,8.72,0,0,0,6.76,3A9.26,9.26,0,0,0,1031.7,178.75Z" transform="translate(-5.84 -2.85)" fill="#7fcbf8"/><path d="M1130.72,151.78q5.1,5.22,5.1,14.52v27.06h-14.11V168.21a9.59,9.59,0,0,0-2.36-6.93,9.89,9.89,0,0,0-13,0q-2.37,2.44-2.37,6.93v25.15h-14.11V168.21a9.59,9.59,0,0,0-2.36-6.93,9.9,9.9,0,0,0-13,0,9.59,9.59,0,0,0-2.36,6.93v25.15h-14.19V147.05h14.19v5.81a15.16,15.16,0,0,1,5.64-4.61,17.82,17.82,0,0,1,7.89-1.7,19.14,19.14,0,0,1,9.34,2.24,16.07,16.07,0,0,1,6.43,6.39,18.71,18.71,0,0,1,6.56-6.23,17.73,17.73,0,0,1,9-2.4Q1125.62,146.55,1130.72,151.78Z" transform="translate(-5.84 -2.85)" fill="#7fcbf8"/><path d="M406.66,18.09V126.2H380.32V61.37L356.15,126.2H334.89l-24.33-65v65H284.23V18.09h31.11l30.33,74.85,30-74.85Z" transform="translate(-5.84 -2.85)" fill="#7fccf8"/><path d="M430.45,59.83a37.29,37.29,0,0,1,13.63-15.4A35.53,35.53,0,0,1,463.33,39a33.11,33.11,0,0,1,15.94,3.69,27.33,27.33,0,0,1,10.55,9.7V40.27h26.33V126.2H489.82V114a28.54,28.54,0,0,1-10.7,9.71,33.14,33.14,0,0,1-15.94,3.69,35,35,0,0,1-19.1-5.46,37.82,37.82,0,0,1-13.63-15.56q-5-10.08-5-23.33T430.45,59.83Zm53.9,7.85a18.5,18.5,0,0,0-26.64-.08q-5.47,5.63-5.47,15.48t5.47,15.63a18.33,18.33,0,0,0,26.64.08q5.46-5.7,5.47-15.56T484.35,67.68Z" transform="translate(-5.84 -2.85)" fill="#7fccf8"/><path d="M578.21,43.42a29.88,29.88,0,0,1,15.4-4.08V67.22h-7.24q-9.86,0-14.78,4.23t-4.93,14.86V126.2H540.33V40.27h26.33V54.59A34.87,34.87,0,0,1,578.21,43.42Z" transform="translate(-5.84 -2.85)" fill="#7fccf8"/><path d="M611.09,59.83a37.22,37.22,0,0,1,13.63-15.4A35.51,35.51,0,0,1,644,39a33.11,33.11,0,0,1,15.94,3.69,27.33,27.33,0,0,1,10.55,9.7V40.27h26.33V126.2H670.46V114a28.49,28.49,0,0,1-10.71,9.71,33.11,33.11,0,0,1-15.94,3.69A35,35,0,0,1,624.72,122a37.75,37.75,0,0,1-13.63-15.56q-5-10.08-5-23.33T611.09,59.83ZM665,67.68a18.5,18.5,0,0,0-26.64-.08q-5.48,5.63-5.47,15.48t5.47,15.63a18.33,18.33,0,0,0,26.64.08q5.46-5.7,5.47-15.56T665,67.68Z" transform="translate(-5.84 -2.85)" fill="#7fccf8"/></svg>